<svg width="60" height="60" viewBox="0 0 60 60" fill="none" xmlns="http://www.w3.org/2000/svg">
<path d="M15 16.875C13.5166 16.875 12.0666 16.4351 10.8332 15.611C9.59985 14.7869 8.63856 13.6156 8.0709 12.2451C7.50325 10.8747 7.35472 9.36668 7.64411 7.91183C7.9335 6.45697 8.6478 5.1206 9.6967 4.0717C10.7456 3.02281 12.082 2.3085 13.5368 2.01911C14.9917 1.72972 16.4997 1.87825 17.8701 2.44591C19.2406 3.01356 20.4119 3.97486 21.236 5.20823C22.0601 6.4416 22.5 7.89164 22.5 9.375C22.5 11.3641 21.7098 13.2718 20.3033 14.6783C18.8968 16.0848 16.9891 16.875 15 16.875ZM15 5.625C14.2583 5.625 13.5333 5.84494 12.9166 6.25699C12.2999 6.66905 11.8193 7.25472 11.5355 7.93994C11.2516 8.62516 11.1774 9.37916 11.3221 10.1066C11.4667 10.834 11.8239 11.5022 12.3483 12.0267C12.8728 12.5511 13.541 12.9083 14.2684 13.0529C14.9958 13.1976 15.7498 13.1234 16.4351 12.8396C17.1203 12.5557 17.706 12.0751 18.118 11.4584C18.5301 10.8417 18.75 10.1167 18.75 9.375C18.75 8.38044 18.3549 7.42661 17.6516 6.72335C16.9484 6.02009 15.9946 5.625 15 5.625ZM45 16.875C43.5166 16.875 42.0666 16.4351 40.8332 15.611C39.5999 14.7869 38.6386 13.6156 38.0709 12.2451C37.5032 10.8747 37.3547 9.36668 37.6441 7.91183C37.9335 6.45697 38.6478 5.1206 39.6967 4.0717C40.7456 3.02281 42.082 2.3085 43.5368 2.01911C44.9917 1.72972 46.4997 1.87825 47.8701 2.44591C49.2406 3.01356 50.4119 3.97486 51.236 5.20823C52.0601 6.4416 52.5 7.89164 52.5 9.375C52.5 11.3641 51.7098 13.2718 50.3033 14.6783C48.8968 16.0848 46.9891 16.875 45 16.875ZM45 5.625C44.2583 5.625 43.5333 5.84494 42.9166 6.25699C42.2999 6.66905 41.8193 7.25472 41.5354 7.93994C41.2516 8.62516 41.1774 9.37916 41.3221 10.1066C41.4668 10.834 41.8239 11.5022 42.3484 12.0267C42.8728 12.5511 43.541 12.9083 44.2684 13.0529C44.9958 13.1976 45.7498 13.1234 46.4351 12.8396C47.1203 12.5557 47.706 12.0751 48.118 11.4584C48.5301 10.8417 48.75 10.1167 48.75 9.375C48.75 8.38044 48.3549 7.42661 47.6516 6.72335C46.9484 6.02009 45.9946 5.625 45 5.625ZM48.75 56.25H41.25C40.2554 56.25 39.3016 55.8549 38.5984 55.1517C37.8951 54.4484 37.5 53.4946 37.5 52.5V39.375H41.25V52.5H48.75V35.625H52.5V24.375C52.5 23.8777 52.3025 23.4008 51.9508 23.0492C51.5992 22.6975 51.1223 22.5 50.625 22.5H38.5875L30 37.5L21.4125 22.5H9.375C8.87772 22.5 8.40081 22.6975 8.04918 23.0492C7.69754 23.4008 7.5 23.8777 7.5 24.375V35.625H11.25V52.5H18.75V39.375H22.5V52.5C22.5 53.4946 22.1049 54.4484 21.4016 55.1517C20.6984 55.8549 19.7446 56.25 18.75 56.25H11.25C10.2554 56.25 9.30161 55.8549 8.59835 55.1517C7.89509 54.4484 7.5 53.4946 7.5 52.5V39.375C6.50544 39.375 5.55161 38.9799 4.84835 38.2767C4.14509 37.5734 3.75 36.6196 3.75 35.625V24.375C3.75 22.8832 4.34263 21.4524 5.39752 20.3975C6.45242 19.3426 7.88316 18.75 9.375 18.75H23.5875L30 30L36.4125 18.75H50.625C52.1168 18.75 53.5476 19.3426 54.6025 20.3975C55.6574 21.4524 56.25 22.8832 56.25 24.375V35.625C56.25 36.6196 55.8549 37.5734 55.1516 38.2767C54.4484 38.9799 53.4946 39.375 52.5 39.375V52.5C52.5 53.4946 52.1049 54.4484 51.4016 55.1517C50.6984 55.8549 49.7446 56.25 48.75 56.25Z" fill="#FF5501"/>
</svg>
