<svg width="54" height="56" viewBox="0 0 54 56" fill="none" xmlns="http://www.w3.org/2000/svg">
<path d="M12 15.875C10.5166 15.875 9.06659 15.4351 7.83322 14.611C6.59985 13.7869 5.63856 12.6156 5.0709 11.2451C4.50325 9.87468 4.35472 8.36668 4.64411 6.91183C4.9335 5.45697 5.6478 4.1206 6.6967 3.0717C7.74559 2.02281 9.08197 1.3085 10.5368 1.01911C11.9917 0.729725 13.4997 0.87825 14.8701 1.44591C16.2406 2.01356 17.4119 2.97486 18.236 4.20823C19.0601 5.4416 19.5 6.89164 19.5 8.375C19.5 10.3641 18.7098 12.2718 17.3033 13.6783C15.8968 15.0848 13.9891 15.875 12 15.875ZM12 4.625C11.2583 4.625 10.5333 4.84494 9.91661 5.25699C9.29993 5.66905 8.81928 6.25472 8.53545 6.93994C8.25162 7.62516 8.17736 8.37916 8.32205 9.10659C8.46675 9.83402 8.8239 10.5022 9.34835 11.0267C9.8728 11.5511 10.541 11.9083 11.2684 12.0529C11.9958 12.1976 12.7498 12.1234 13.4351 11.8396C14.1203 11.5557 14.706 11.0751 15.118 10.4584C15.5301 9.84171 15.75 9.11668 15.75 8.375C15.75 7.38044 15.3549 6.42661 14.6516 5.72335C13.9484 5.02009 12.9946 4.625 12 4.625ZM42 15.875C40.5166 15.875 39.0666 15.4351 37.8332 14.611C36.5999 13.7869 35.6386 12.6156 35.0709 11.2451C34.5032 9.87468 34.3547 8.36668 34.6441 6.91183C34.9335 5.45697 35.6478 4.1206 36.6967 3.0717C37.7456 2.02281 39.082 1.3085 40.5368 1.01911C41.9917 0.729725 43.4997 0.87825 44.8701 1.44591C46.2406 2.01356 47.4119 2.97486 48.236 4.20823C49.0601 5.4416 49.5 6.89164 49.5 8.375C49.5 10.3641 48.7098 12.2718 47.3033 13.6783C45.8968 15.0848 43.9891 15.875 42 15.875ZM42 4.625C41.2583 4.625 40.5333 4.84494 39.9166 5.25699C39.2999 5.66905 38.8193 6.25472 38.5354 6.93994C38.2516 7.62516 38.1774 8.37916 38.3221 9.10659C38.4668 9.83402 38.8239 10.5022 39.3484 11.0267C39.8728 11.5511 40.541 11.9083 41.2684 12.0529C41.9958 12.1976 42.7498 12.1234 43.4351 11.8396C44.1203 11.5557 44.706 11.0751 45.118 10.4584C45.5301 9.84171 45.75 9.11668 45.75 8.375C45.75 7.38044 45.3549 6.42661 44.6516 5.72335C43.9484 5.02009 42.9946 4.625 42 4.625ZM45.75 55.25H38.25C37.2554 55.25 36.3016 54.8549 35.5984 54.1517C34.8951 53.4484 34.5 52.4946 34.5 51.5V38.375H38.25V51.5H45.75V34.625H49.5V23.375C49.5 22.8777 49.3025 22.4008 48.9508 22.0492C48.5992 21.6975 48.1223 21.5 47.625 21.5H35.5875L27 36.5L18.4125 21.5H6.375C5.87772 21.5 5.40081 21.6975 5.04918 22.0492C4.69754 22.4008 4.5 22.8777 4.5 23.375V34.625H8.25V51.5H15.75V38.375H19.5V51.5C19.5 52.4946 19.1049 53.4484 18.4016 54.1517C17.6984 54.8549 16.7446 55.25 15.75 55.25H8.25C7.25544 55.25 6.30161 54.8549 5.59835 54.1517C4.89509 53.4484 4.5 52.4946 4.5 51.5V38.375C3.50544 38.375 2.55161 37.9799 1.84835 37.2767C1.14509 36.5734 0.75 35.6196 0.75 34.625V23.375C0.75 21.8832 1.34263 20.4524 2.39752 19.3975C3.45242 18.3426 4.88316 17.75 6.375 17.75H20.5875L27 29L33.4125 17.75H47.625C49.1168 17.75 50.5476 18.3426 51.6025 19.3975C52.6574 20.4524 53.25 21.8832 53.25 23.375V34.625C53.25 35.6196 52.8549 36.5734 52.1516 37.2767C51.4484 37.9799 50.4946 38.375 49.5 38.375V51.5C49.5 52.4946 49.1049 53.4484 48.4016 54.1517C47.6984 54.8549 46.7446 55.25 45.75 55.25Z" fill="#007AFF"/>
</svg>
